<svg xmlns="http://www.w3.org/2000/svg" viewBox="0 0 251.29 53.45"><defs><style>.cls-1{fill:#ce262d;}.cls-1,.cls-4{fill-rule:evenodd;}.cls-2{fill:#d51317;}.cls-3,.cls-4{fill:#fff;}</style></defs><title>logo</title><g id="Слой_2" data-name="Слой 2"><g id="Layer_1" data-name="Layer 1"><path class="cls-1" d="M113.18,24.13a12.39,12.39,0,0,0-12.3-10.81H68.47V24.13H94.21a2.57,2.57,0,0,1,2.57,2.57v1.95H74.19a7.77,7.77,0,0,0-7.77,7.79c0,2.94,0,6.29,0,9.24a7.77,7.77,0,0,0,7.77,7.77h26.68a12.4,12.4,0,0,0,11.47-7.69,12.26,12.26,0,0,0,.93-4.71V25.72A11.92,11.92,0,0,0,113.18,24.13ZM96.78,41.18a1.68,1.68,0,0,1-1.68,1.68H82.92a2.45,2.45,0,0,1-1.43-.47A2.45,2.45,0,0,1,82.92,38H96.78Z"/><path class="cls-1" d="M251.18,24.13a12.39,12.39,0,0,0-12.3-10.81H206.47V24.13h25.74a2.57,2.57,0,0,1,2.57,2.57v1.95H212.19a7.77,7.77,0,0,0-7.77,7.79c0,2.94,0,6.29,0,9.24a7.77,7.77,0,0,0,7.77,7.77h26.68a12.4,12.4,0,0,0,11.47-7.69,12.26,12.26,0,0,0,.93-4.71V25.72A11.92,11.92,0,0,0,251.18,24.13Zm-16.4,17.05a1.68,1.68,0,0,1-1.68,1.68H220.92a2.45,2.45,0,0,1-1.43-.47A2.45,2.45,0,0,1,220.92,38h13.87Z"/><path d="M201.3,10.41h-8.67a2.83,2.83,0,0,0-2.84,2.89.29.29,0,0,0,0,0H201.3V24.11H190V53.43H172.61V24.11H167.4V13.33h5.2A13.32,13.32,0,0,1,185.93,0H201.3Z"/><path d="M152,35.68a10.3,10.3,0,0,1-1.07-1.82,3.77,3.77,0,0,1-.16-3.27,5.59,5.59,0,0,1,.77-1.44l12.07-15.82H147.44l-9,12.84a31.71,31.71,0,0,0-1.7,2.79,7.36,7.36,0,0,0-.74,3.53,13.73,13.73,0,0,0,.35,2.64,10.13,10.13,0,0,0,2,3.83l11,14.46H166ZM117.57.14V53.42h17.22V.14Z"/><rect class="cls-2" y="13.31" width="49.22" height="2.01"/><rect class="cls-3" y="15.32" width="49.22" height="2.01"/><rect class="cls-2" y="17.33" width="49.22" height="2.01"/><rect class="cls-3" y="19.34" width="49.22" height="2.01"/><rect class="cls-2" y="21.34" width="49.22" height="2.01"/><rect class="cls-3" y="23.35" width="49.22" height="2.01"/><rect class="cls-2" y="25.36" width="49.22" height="2.01"/><rect class="cls-3" y="27.36" width="49.22" height="2.01"/><rect class="cls-2" y="29.37" width="49.22" height="2.01"/><rect class="cls-3" y="31.38" width="49.22" height="2.01"/><rect class="cls-2" y="33.38" width="49.22" height="2.01"/><rect class="cls-3" y="35.39" width="49.22" height="2.01"/><rect class="cls-2" y="37.4" width="49.22" height="2.01"/><rect class="cls-3" y="39.4" width="49.22" height="2.01"/><rect class="cls-2" y="41.41" width="49.22" height="2.01"/><rect class="cls-3" y="43.42" width="49.22" height="2.01"/><rect class="cls-2" y="45.42" width="49.22" height="2.01"/><rect class="cls-3" y="47.43" width="49.22" height="2.01"/><rect class="cls-2" y="49.44" width="49.22" height="2.01"/><rect class="cls-3" y="51.44" width="49.22" height="2.01"/><polygon class="cls-1" points="49.22 53.45 0 53.45 0 13.31 49.22 53.45"/><path class="cls-4" d="M15.66,33.78l.92.15c5.43-5.88,7.14-11,9.39-17.11,3.31,20.61,11.11,30.62,16.35,33.12-5.43.24-9.19-2.65-11.89-7A42.64,42.64,0,0,0,17.5,34.43c-4.71,6-9,9.4-10.13,9.79-.84.29-2-.79-1.39-1.4,1.43-1.39,8.41-6.07,10.07-8.39a4.69,4.69,0,0,1,.38-.35Zm2,.39a46.52,46.52,0,0,1,10.61,4.58c-1.46-4.18-3.62-10.11-4.22-14.48-1.36,3-3.68,6.11-6.39,9.9Z"/></g></g></svg>